<?xml version="1.0" encoding="UTF-8" standalone="no"?><svg xmlns="http://www.w3.org/2000/svg" xmlns:xlink="http://www.w3.org/1999/xlink" clip-rule="evenodd" stroke-miterlimit="4.00" viewBox="0 0 1024 768"><desc>SVG generated by Keynote</desc><defs></defs><g transform="matrix(1.00, 0.00, -0.00, -1.00, 0.0, 768.0)"><path d="M 0.0 768.0 L 1024.0 768.0 L 1024.0 0.0 L 0.0 0.0 Z M 0.0 768.0 " fill="#000000"></path><g><clipPath id="clip-0"><path d="M 0.0 768.0 L 1024.0 768.0 L 1024.0 0.0 L 0.0 0.0 Z M -0.2 768.0 "></path></clipPath><g clip-path="url(#clip-0)"><image xlink:href="06ADC4352CBD77F358C3B1496D4CABA1.jpeg" width="1024.00" height="768.00" transform="matrix(1.00, 0.00, -0.00, -1.00, 0.0, 768.0)"></image></g></g><text xml:space="preserve" font-family="Helvetica-Light" font-size="26.0" fill="#515151" transform="matrix(1.00, 0.00, -0.00, -1.00, 761.0, 120.0)">D</text><text xml:space="preserve" font-family="Helvetica-Light" font-size="26.0" fill="#515151" transform="matrix(1.00, 0.00, -0.00, -1.00, 779.8, 120.0)">o</text><text xml:space="preserve" font-family="Helvetica-Light" font-size="26.0" fill="#515151" transform="matrix(1.00, 0.00, -0.00, -1.00, 794.2, 120.0)">n</text><text xml:space="preserve" font-family="Helvetica-Light" font-size="26.0" fill="#515151" transform="matrix(1.00, 0.00, -0.00, -1.00, 808.7, 120.0)"> </text><text xml:space="preserve" font-family="Helvetica-Light" font-size="26.0" fill="#515151" transform="matrix(1.00, 0.00, -0.00, -1.00, 815.9, 120.0)">C</text><text xml:space="preserve" font-family="Helvetica-Light" font-size="26.0" fill="#515151" transform="matrix(1.00, 0.00, -0.00, -1.00, 834.7, 120.0)">o</text><text xml:space="preserve" font-family="Helvetica-Light" font-size="26.0" fill="#515151" transform="matrix(1.00, 0.00, -0.00, -1.00, 849.1, 120.0)">l</text><text xml:space="preserve" font-family="Helvetica-Light" font-size="26.0" fill="#515151" transform="matrix(1.00, 0.00, -0.00, -1.00, 854.9, 120.0)">e</text><text xml:space="preserve" font-family="Helvetica-Light" font-size="26.0" fill="#515151" transform="matrix(1.00, 0.00, -0.00, -1.00, 869.4, 120.0)">m</text><text xml:space="preserve" font-family="Helvetica-Light" font-size="26.0" fill="#515151" transform="matrix(1.00, 0.00, -0.00, -1.00, 891.0, 120.0)">a</text><text xml:space="preserve" font-family="Helvetica-Light" font-size="26.0" fill="#515151" transform="matrix(1.00, 0.00, -0.00, -1.00, 905.5, 120.0)">n</text><text xml:space="preserve" font-family="Helvetica-Light" font-size="26.0" fill="#515151" transform="matrix(1.00, 0.00, -0.00, -1.00, 919.9, 120.0)"> </text><text xml:space="preserve" font-family="Helvetica-Light" font-size="26.0" fill="#515151" transform="matrix(1.00, 0.00, -0.00, -1.00, 761.0, 89.0)">C</text><text xml:space="preserve" font-family="Helvetica-Light" font-size="26.0" fill="#515151" transform="matrix(1.00, 0.00, -0.00, -1.00, 779.8, 89.0)">h</text><text xml:space="preserve" font-family="Helvetica-Light" font-size="26.0" fill="#515151" transform="matrix(1.00, 0.00, -0.00, -1.00, 794.2, 89.0)">a</text><text xml:space="preserve" font-family="Helvetica-Light" font-size="26.0" fill="#515151" transform="matrix(1.00, 0.00, -0.00, -1.00, 808.7, 89.0)">r</text><text xml:space="preserve" font-family="Helvetica-Light" font-size="26.0" fill="#515151" transform="matrix(1.00, 0.00, -0.00, -1.00, 817.3, 89.0)">i</text><text xml:space="preserve" font-family="Helvetica-Light" font-size="26.0" fill="#515151" transform="matrix(1.00, 0.00, -0.00, -1.00, 823.1, 89.0)">o</text><text xml:space="preserve" font-family="Helvetica-Light" font-size="26.0" fill="#515151" transform="matrix(1.00, 0.00, -0.00, -1.00, 837.6, 89.0)">t</text><text xml:space="preserve" font-family="Helvetica-Light" font-size="26.0" fill="#515151" transform="matrix(1.00, 0.00, -0.00, -1.00, 844.8, 89.0)"> </text><text xml:space="preserve" font-family="Helvetica-Light" font-size="26.0" fill="#515151" transform="matrix(1.00, 0.00, -0.00, -1.00, 852.0, 89.0)">S</text><text xml:space="preserve" font-family="Helvetica-Light" font-size="26.0" fill="#515151" transform="matrix(1.00, 0.00, -0.00, -1.00, 867.9, 89.0)">o</text><text xml:space="preserve" font-family="Helvetica-Light" font-size="26.0" fill="#515151" transform="matrix(1.00, 0.00, -0.00, -1.00, 882.4, 89.0)">l</text><text xml:space="preserve" font-family="Helvetica-Light" font-size="26.0" fill="#515151" transform="matrix(1.00, 0.00, -0.00, -1.00, 888.1, 89.0)">u</text><text xml:space="preserve" font-family="Helvetica-Light" font-size="26.0" fill="#515151" transform="matrix(1.00, 0.00, -0.00, -1.00, 902.6, 89.0)">t</text><text xml:space="preserve" font-family="Helvetica-Light" font-size="26.0" fill="#515151" transform="matrix(1.00, 0.00, -0.00, -1.00, 909.8, 89.0)">i</text><text xml:space="preserve" font-family="Helvetica-Light" font-size="26.0" fill="#515151" transform="matrix(1.00, 0.00, -0.00, -1.00, 915.6, 89.0)">o</text><text xml:space="preserve" font-family="Helvetica-Light" font-size="26.0" fill="#515151" transform="matrix(1.00, 0.00, -0.00, -1.00, 930.1, 89.0)">n</text><text xml:space="preserve" font-family="Helvetica-Light" font-size="26.0" fill="#515151" transform="matrix(1.00, 0.00, -0.00, -1.00, 944.5, 89.0)">s</text><text xml:space="preserve" font-family="Helvetica-Light" font-size="26.0" fill="#515151" transform="matrix(1.00, 0.00, -0.00, -1.00, 957.5, 89.0)"> </text><text xml:space="preserve" font-family="Helvetica-Light" font-size="26.0" fill="#515151" transform="matrix(1.00, 0.00, -0.00, -1.00, 761.0, 58.0)">M</text><text xml:space="preserve" font-family="Helvetica-Light" font-size="26.0" fill="#515151" transform="matrix(1.00, 0.00, -0.00, -1.00, 782.7, 58.0)">a</text><text xml:space="preserve" font-family="Helvetica-Light" font-size="26.0" fill="#515151" transform="matrix(1.00, 0.00, -0.00, -1.00, 797.1, 58.0)">k</text><text xml:space="preserve" font-family="Helvetica-Light" font-size="26.0" fill="#515151" transform="matrix(1.00, 0.00, -0.00, -1.00, 810.1, 58.0)">e</text><text xml:space="preserve" font-family="Helvetica-Light" font-size="26.0" fill="#515151" transform="matrix(1.00, 0.00, -0.00, -1.00, 824.6, 58.0)">r</text><text xml:space="preserve" font-family="Helvetica-Light" font-size="26.0" fill="#515151" transform="matrix(1.00, 0.00, -0.00, -1.00, 833.2, 58.0)"> </text><text xml:space="preserve" font-family="Helvetica-Light" font-size="26.0" fill="#515151" transform="matrix(1.00, 0.00, -0.00, -1.00, 840.5, 58.0)">F</text><text xml:space="preserve" font-family="Helvetica-Light" font-size="26.0" fill="#515151" transform="matrix(1.00, 0.00, -0.00, -1.00, 854.9, 58.0)">a</text><text xml:space="preserve" font-family="Helvetica-Light" font-size="26.0" fill="#515151" transform="matrix(1.00, 0.00, -0.00, -1.00, 869.4, 58.0)">i</text><text xml:space="preserve" font-family="Helvetica-Light" font-size="26.0" fill="#515151" transform="matrix(1.00, 0.00, -0.00, -1.00, 875.1, 58.0)">r</text><text xml:space="preserve" font-family="Helvetica-Light" font-size="26.0" fill="#515151" transform="matrix(1.00, 0.00, -0.00, -1.00, 883.3, 58.0)">e</text><text xml:space="preserve" font-family="Helvetica-Light" font-size="26.0" fill="#515151" transform="matrix(1.00, 0.00, -0.00, -1.00, 897.8, 58.0)"> </text><text xml:space="preserve" font-family="Helvetica-Light" font-size="26.0" fill="#515151" transform="matrix(1.00, 0.00, -0.00, -1.00, 905.0, 58.0)">N</text><text xml:space="preserve" font-family="Helvetica-Light" font-size="26.0" fill="#515151" transform="matrix(1.00, 0.00, -0.00, -1.00, 923.8, 58.0)">Y</text><text xml:space="preserve" font-family="Helvetica-Light" font-size="26.0" fill="#515151" transform="matrix(1.00, 0.00, -0.00, -1.00, 939.7, 58.0)"> </text><text xml:space="preserve" font-family="Helvetica-Light" font-size="26.0" fill="#515151" transform="matrix(1.00, 0.00, -0.00, -1.00, 946.9, 58.0)"> </text><text xml:space="preserve" font-family="Helvetica-Light" font-size="26.0" fill="#515151" transform="matrix(1.00, 0.00, -0.00, -1.00, 761.0, 27.0)">O</text><text xml:space="preserve" font-family="Helvetica-Light" font-size="26.0" fill="#515151" transform="matrix(1.00, 0.00, -0.00, -1.00, 781.2, 27.0)">c</text><text xml:space="preserve" font-family="Helvetica-Light" font-size="26.0" fill="#515151" transform="matrix(1.00, 0.00, -0.00, -1.00, 795.7, 27.0)">t</text><text xml:space="preserve" font-family="Helvetica-Light" font-size="26.0" fill="#515151" transform="matrix(1.00, 0.00, -0.00, -1.00, 802.9, 27.0)">o</text><text xml:space="preserve" font-family="Helvetica-Light" font-size="26.0" fill="#515151" transform="matrix(1.00, 0.00, -0.00, -1.00, 817.4, 27.0)">b</text><text xml:space="preserve" font-family="Helvetica-Light" font-size="26.0" fill="#515151" transform="matrix(1.00, 0.00, -0.00, -1.00, 833.3, 27.0)">e</text><text xml:space="preserve" font-family="Helvetica-Light" font-size="26.0" fill="#515151" transform="matrix(1.00, 0.00, -0.00, -1.00, 847.7, 27.0)">r</text><text xml:space="preserve" font-family="Helvetica-Light" font-size="26.0" fill="#515151" transform="matrix(1.00, 0.00, -0.00, -1.00, 856.4, 27.0)"> </text><text xml:space="preserve" font-family="Helvetica-Light" font-size="26.0" fill="#515151" transform="matrix(1.00, 0.00, -0.00, -1.00, 863.6, 27.0)">2</text><text xml:space="preserve" font-family="Helvetica-Light" font-size="26.0" fill="#515151" transform="matrix(1.00, 0.00, -0.00, -1.00, 878.1, 27.0)">,</text><text xml:space="preserve" font-family="Helvetica-Light" font-size="26.0" fill="#515151" transform="matrix(1.00, 0.00, -0.00, -1.00, 885.3, 27.0)"> </text><text xml:space="preserve" font-family="Helvetica-Light" font-size="26.0" fill="#515151" transform="matrix(1.00, 0.00, -0.00, -1.00, 892.5, 27.0)">2</text><text xml:space="preserve" font-family="Helvetica-Light" font-size="26.0" fill="#515151" transform="matrix(1.00, 0.00, -0.00, -1.00, 907.0, 27.0)">0</text><text xml:space="preserve" font-family="Helvetica-Light" font-size="26.0" fill="#515151" transform="matrix(1.00, 0.00, -0.00, -1.00, 921.4, 27.0)">1</text><text xml:space="preserve" font-family="Helvetica-Light" font-size="26.0" fill="#515151" transform="matrix(1.00, 0.00, -0.00, -1.00, 935.9, 27.0)">6</text><text xml:space="preserve" font-family="Helvetica-Light" font-size="63.0" fill="#515151" transform="matrix(1.00, 0.00, -0.00, -1.00, 259.0, 683.0)">B</text><text xml:space="preserve" font-family="Helvetica-Light" font-size="63.0" fill="#515151" transform="matrix(1.00, 0.00, -0.00, -1.00, 301.0, 683.0)">u</text><text xml:space="preserve" font-family="Helvetica-Light" font-size="63.0" fill="#515151" transform="matrix(1.00, 0.00, -0.00, -1.00, 336.0, 683.0)">i</text><text xml:space="preserve" font-family="Helvetica-Light" font-size="63.0" fill="#515151" transform="matrix(1.00, 0.00, -0.00, -1.00, 350.0, 683.0)">l</text><text xml:space="preserve" font-family="Helvetica-Light" font-size="63.0" fill="#515151" transform="matrix(1.00, 0.00, -0.00, -1.00, 364.0, 683.0)">d</text><text xml:space="preserve" font-family="Helvetica-Light" font-size="63.0" fill="#515151" transform="matrix(1.00, 0.00, -0.00, -1.00, 402.5, 683.0)">i</text><text xml:space="preserve" font-family="Helvetica-Light" font-size="63.0" fill="#515151" transform="matrix(1.00, 0.00, -0.00, -1.00, 416.5, 683.0)">n</text><text xml:space="preserve" font-family="Helvetica-Light" font-size="63.0" fill="#515151" transform="matrix(1.00, 0.00, -0.00, -1.00, 451.5, 683.0)">g</text><text xml:space="preserve" font-family="Helvetica-Light" font-size="63.0" fill="#515151" transform="matrix(1.00, 0.00, -0.00, -1.00, 490.0, 683.0)"> </text><text xml:space="preserve" font-family="Helvetica-Light" font-size="63.0" fill="#515151" transform="matrix(1.00, 0.00, -0.00, -1.00, 507.5, 683.0)">W</text><text xml:space="preserve" font-family="Helvetica-Light" font-size="63.0" fill="#515151" transform="matrix(1.00, 0.00, -0.00, -1.00, 563.5, 683.0)">i</text><text xml:space="preserve" font-family="Helvetica-Light" font-size="63.0" fill="#515151" transform="matrix(1.00, 0.00, -0.00, -1.00, 577.5, 683.0)">r</text><text xml:space="preserve" font-family="Helvetica-Light" font-size="63.0" fill="#515151" transform="matrix(1.00, 0.00, -0.00, -1.00, 597.4, 683.0)">e</text><text xml:space="preserve" font-family="Helvetica-Light" font-size="63.0" fill="#515151" transform="matrix(1.00, 0.00, -0.00, -1.00, 632.4, 683.0)">l</text><text xml:space="preserve" font-family="Helvetica-Light" font-size="63.0" fill="#515151" transform="matrix(1.00, 0.00, -0.00, -1.00, 646.4, 683.0)">e</text><text xml:space="preserve" font-family="Helvetica-Light" font-size="63.0" fill="#515151" transform="matrix(1.00, 0.00, -0.00, -1.00, 681.4, 683.0)">s</text><text xml:space="preserve" font-family="Helvetica-Light" font-size="63.0" fill="#515151" transform="matrix(1.00, 0.00, -0.00, -1.00, 712.9, 683.0)">s</text><text xml:space="preserve" font-family="Helvetica-Light" font-size="63.0" fill="#515151" transform="matrix(1.00, 0.00, -0.00, -1.00, 744.4, 683.0)"> </text><text xml:space="preserve" font-family="Helvetica-Light" font-size="63.0" fill="#515151" transform="matrix(1.00, 0.00, -0.00, -1.00, 761.9, 683.0)">S</text><text xml:space="preserve" font-family="Helvetica-Light" font-size="63.0" fill="#515151" transform="matrix(1.00, 0.00, -0.00, -1.00, 800.4, 683.0)">e</text><text xml:space="preserve" font-family="Helvetica-Light" font-size="63.0" fill="#515151" transform="matrix(1.00, 0.00, -0.00, -1.00, 835.5, 683.0)">n</text><text xml:space="preserve" font-family="Helvetica-Light" font-size="63.0" fill="#515151" transform="matrix(1.00, 0.00, -0.00, -1.00, 870.5, 683.0)">s</text><text xml:space="preserve" font-family="Helvetica-Light" font-size="63.0" fill="#515151" transform="matrix(1.00, 0.00, -0.00, -1.00, 902.0, 683.0)">o</text><text xml:space="preserve" font-family="Helvetica-Light" font-size="63.0" fill="#515151" transform="matrix(1.00, 0.00, -0.00, -1.00, 937.0, 683.0)">r</text><text xml:space="preserve" font-family="Helvetica-Light" font-size="63.0" fill="#515151" transform="matrix(1.00, 0.00, -0.00, -1.00, 958.0, 683.0)">s</text></g></svg>