<?xml version="1.0" encoding="UTF-8" standalone="no"?><svg xmlns="http://www.w3.org/2000/svg" xmlns:xlink="http://www.w3.org/1999/xlink" clip-rule="evenodd" stroke-miterlimit="4.00" viewBox="0 0 1024 768"><desc>SVG generated by Keynote</desc><defs></defs><g transform="matrix(1.00, 0.00, -0.00, -1.00, 0.0, 768.0)"><path d="M 0.0 768.0 L 1024.0 768.0 L 1024.0 0.0 L 0.0 0.0 Z M 0.0 768.0 " fill="#000000"></path><g><clipPath id="clip-113"><path d="M 0.0 768.0 L 1024.0 768.0 L 1024.0 0.0 L 0.0 0.0 Z M 0.0 768.0 "></path></clipPath><g clip-path="url(#clip-113)"><image xlink:href="../../86EA2158-4D71-44FA-82EA-102201E2C95C/assets/E89CC77EF299ACEAA28F75FFAAA7EBD4.jpeg" width="1024.00" height="768.00" transform="matrix(1.00, 0.00, -0.00, -1.00, 0.0, 768.0)"></image></g></g><text xml:space="preserve" font-family="Helvetica" font-size="36.0" fill="#FEFFFF" transform="matrix(1.00, 0.00, -0.00, -1.00, 412.0, 481.0)">D</text><text xml:space="preserve" font-family="Helvetica" font-size="36.0" fill="#FEFFFF" transform="matrix(1.00, 0.00, -0.00, -1.00, 438.0, 481.0)">o</text><text xml:space="preserve" font-family="Helvetica" font-size="36.0" fill="#FEFFFF" transform="matrix(1.00, 0.00, -0.00, -1.00, 458.0, 481.0)">n</text><text xml:space="preserve" font-family="Helvetica" font-size="36.0" fill="#FEFFFF" transform="matrix(1.00, 0.00, -0.00, -1.00, 478.1, 481.0)"> </text><text xml:space="preserve" font-family="Helvetica" font-size="36.0" fill="#FEFFFF" transform="matrix(1.00, 0.00, -0.00, -1.00, 488.1, 481.0)">C</text><text xml:space="preserve" font-family="Helvetica" font-size="36.0" fill="#FEFFFF" transform="matrix(1.00, 0.00, -0.00, -1.00, 514.1, 481.0)">o</text><text xml:space="preserve" font-family="Helvetica" font-size="36.0" fill="#FEFFFF" transform="matrix(1.00, 0.00, -0.00, -1.00, 534.1, 481.0)">l</text><text xml:space="preserve" font-family="Helvetica" font-size="36.0" fill="#FEFFFF" transform="matrix(1.00, 0.00, -0.00, -1.00, 542.1, 481.0)">e</text><text xml:space="preserve" font-family="Helvetica" font-size="36.0" fill="#FEFFFF" transform="matrix(1.00, 0.00, -0.00, -1.00, 562.1, 481.0)">m</text><text xml:space="preserve" font-family="Helvetica" font-size="36.0" fill="#FEFFFF" transform="matrix(1.00, 0.00, -0.00, -1.00, 592.1, 481.0)">a</text><text xml:space="preserve" font-family="Helvetica" font-size="36.0" fill="#FEFFFF" transform="matrix(1.00, 0.00, -0.00, -1.00, 612.1, 481.0)">n</text><text xml:space="preserve" font-family="Helvetica" font-size="36.0" fill="#FEFFFF" transform="matrix(1.00, 0.00, -0.00, -1.00, 385.0, 438.0)">C</text><text xml:space="preserve" font-family="Helvetica" font-size="36.0" fill="#FEFFFF" transform="matrix(1.00, 0.00, -0.00, -1.00, 411.0, 438.0)">h</text><text xml:space="preserve" font-family="Helvetica" font-size="36.0" fill="#FEFFFF" transform="matrix(1.00, 0.00, -0.00, -1.00, 431.0, 438.0)">a</text><text xml:space="preserve" font-family="Helvetica" font-size="36.0" fill="#FEFFFF" transform="matrix(1.00, 0.00, -0.00, -1.00, 451.1, 438.0)">r</text><text xml:space="preserve" font-family="Helvetica" font-size="36.0" fill="#FEFFFF" transform="matrix(1.00, 0.00, -0.00, -1.00, 463.1, 438.0)">i</text><text xml:space="preserve" font-family="Helvetica" font-size="36.0" fill="#FEFFFF" transform="matrix(1.00, 0.00, -0.00, -1.00, 471.1, 438.0)">o</text><text xml:space="preserve" font-family="Helvetica" font-size="36.0" fill="#FEFFFF" transform="matrix(1.00, 0.00, -0.00, -1.00, 491.1, 438.0)">t</text><text xml:space="preserve" font-family="Helvetica" font-size="36.0" fill="#FEFFFF" transform="matrix(1.00, 0.00, -0.00, -1.00, 501.1, 438.0)"> </text><text xml:space="preserve" font-family="Helvetica" font-size="36.0" fill="#FEFFFF" transform="matrix(1.00, 0.00, -0.00, -1.00, 511.1, 438.0)">S</text><text xml:space="preserve" font-family="Helvetica" font-size="36.0" fill="#FEFFFF" transform="matrix(1.00, 0.00, -0.00, -1.00, 535.1, 438.0)">o</text><text xml:space="preserve" font-family="Helvetica" font-size="36.0" fill="#FEFFFF" transform="matrix(1.00, 0.00, -0.00, -1.00, 555.1, 438.0)">l</text><text xml:space="preserve" font-family="Helvetica" font-size="36.0" fill="#FEFFFF" transform="matrix(1.00, 0.00, -0.00, -1.00, 563.1, 438.0)">u</text><text xml:space="preserve" font-family="Helvetica" font-size="36.0" fill="#FEFFFF" transform="matrix(1.00, 0.00, -0.00, -1.00, 583.1, 438.0)">t</text><text xml:space="preserve" font-family="Helvetica" font-size="36.0" fill="#FEFFFF" transform="matrix(1.00, 0.00, -0.00, -1.00, 593.1, 438.0)">i</text><text xml:space="preserve" font-family="Helvetica" font-size="36.0" fill="#FEFFFF" transform="matrix(1.00, 0.00, -0.00, -1.00, 601.1, 438.0)">o</text><text xml:space="preserve" font-family="Helvetica" font-size="36.0" fill="#FEFFFF" transform="matrix(1.00, 0.00, -0.00, -1.00, 621.2, 438.0)">n</text><text xml:space="preserve" font-family="Helvetica" font-size="36.0" fill="#FEFFFF" transform="matrix(1.00, 0.00, -0.00, -1.00, 641.2, 438.0)">s</text><text xml:space="preserve" font-family="Helvetica" font-size="36.0" fill="#FEFFFF" transform="matrix(1.00, 0.00, -0.00, -1.00, 310.0, 395.0)">d</text><text xml:space="preserve" font-family="Helvetica" font-size="36.0" fill="#FEFFFF" transform="matrix(1.00, 0.00, -0.00, -1.00, 330.0, 395.0)">o</text><text xml:space="preserve" font-family="Helvetica" font-size="36.0" fill="#FEFFFF" transform="matrix(1.00, 0.00, -0.00, -1.00, 350.1, 395.0)">n</text><text xml:space="preserve" font-family="Helvetica" font-size="36.0" fill="#FEFFFF" transform="matrix(1.00, 0.00, -0.00, -1.00, 370.1, 395.0)">@</text><text xml:space="preserve" font-family="Helvetica" font-size="36.0" fill="#FEFFFF" transform="matrix(1.00, 0.00, -0.00, -1.00, 406.6, 395.0)">c</text><text xml:space="preserve" font-family="Helvetica" font-size="36.0" fill="#FEFFFF" transform="matrix(1.00, 0.00, -0.00, -1.00, 424.6, 395.0)">h</text><text xml:space="preserve" font-family="Helvetica" font-size="36.0" fill="#FEFFFF" transform="matrix(1.00, 0.00, -0.00, -1.00, 444.7, 395.0)">a</text><text xml:space="preserve" font-family="Helvetica" font-size="36.0" fill="#FEFFFF" transform="matrix(1.00, 0.00, -0.00, -1.00, 464.7, 395.0)">r</text><text xml:space="preserve" font-family="Helvetica" font-size="36.0" fill="#FEFFFF" transform="matrix(1.00, 0.00, -0.00, -1.00, 476.7, 395.0)">i</text><text xml:space="preserve" font-family="Helvetica" font-size="36.0" fill="#FEFFFF" transform="matrix(1.00, 0.00, -0.00, -1.00, 484.7, 395.0)">o</text><text xml:space="preserve" font-family="Helvetica" font-size="36.0" fill="#FEFFFF" transform="matrix(1.00, 0.00, -0.00, -1.00, 504.7, 395.0)">t</text><text xml:space="preserve" font-family="Helvetica" font-size="36.0" fill="#FEFFFF" transform="matrix(1.00, 0.00, -0.00, -1.00, 514.7, 395.0)">s</text><text xml:space="preserve" font-family="Helvetica" font-size="36.0" fill="#FEFFFF" transform="matrix(1.00, 0.00, -0.00, -1.00, 532.7, 395.0)">o</text><text xml:space="preserve" font-family="Helvetica" font-size="36.0" fill="#FEFFFF" transform="matrix(1.00, 0.00, -0.00, -1.00, 552.7, 395.0)">l</text><text xml:space="preserve" font-family="Helvetica" font-size="36.0" fill="#FEFFFF" transform="matrix(1.00, 0.00, -0.00, -1.00, 560.7, 395.0)">u</text><text xml:space="preserve" font-family="Helvetica" font-size="36.0" fill="#FEFFFF" transform="matrix(1.00, 0.00, -0.00, -1.00, 580.8, 395.0)">t</text><text xml:space="preserve" font-family="Helvetica" font-size="36.0" fill="#FEFFFF" transform="matrix(1.00, 0.00, -0.00, -1.00, 590.8, 395.0)">i</text><text xml:space="preserve" font-family="Helvetica" font-size="36.0" fill="#FEFFFF" transform="matrix(1.00, 0.00, -0.00, -1.00, 598.8, 395.0)">o</text><text xml:space="preserve" font-family="Helvetica" font-size="36.0" fill="#FEFFFF" transform="matrix(1.00, 0.00, -0.00, -1.00, 618.8, 395.0)">n</text><text xml:space="preserve" font-family="Helvetica" font-size="36.0" fill="#FEFFFF" transform="matrix(1.00, 0.00, -0.00, -1.00, 638.8, 395.0)">s</text><text xml:space="preserve" font-family="Helvetica" font-size="36.0" fill="#FEFFFF" transform="matrix(1.00, 0.00, -0.00, -1.00, 656.8, 395.0)">.</text><text xml:space="preserve" font-family="Helvetica" font-size="36.0" fill="#FEFFFF" transform="matrix(1.00, 0.00, -0.00, -1.00, 666.8, 395.0)">c</text><text xml:space="preserve" font-family="Helvetica" font-size="36.0" fill="#FEFFFF" transform="matrix(1.00, 0.00, -0.00, -1.00, 684.8, 395.0)">o</text><text xml:space="preserve" font-family="Helvetica" font-size="36.0" fill="#FEFFFF" transform="matrix(1.00, 0.00, -0.00, -1.00, 704.9, 395.0)">m</text><g><clipPath id="clip-114"><path d="M 308.6 390.7 L 734.4 390.7 L 734.4 394.4 L 308.6 394.4 Z M 308.6 390.7 "></path></clipPath><g clip-path="url(#clip-114)"><path d="M 9.5 127.4 L 434.3 127.4 " fill="none" stroke="#FEFFFF" stroke-width="1.78" stroke-miterlimit="0.00" transform="matrix(1.00, 0.00, 0.00, -1.00, 300.1, 520.0)"></path></g></g><text xml:space="preserve" font-family="Helvetica" font-size="36.0" fill="#FEFFFF" transform="matrix(1.00, 0.00, -0.00, -1.00, 406.0, 352.0)">@</text><text xml:space="preserve" font-family="Helvetica" font-size="36.0" fill="#FEFFFF" transform="matrix(1.00, 0.00, -0.00, -1.00, 442.5, 352.0)">d</text><text xml:space="preserve" font-family="Helvetica" font-size="36.0" fill="#FEFFFF" transform="matrix(1.00, 0.00, -0.00, -1.00, 462.6, 352.0)">o</text><text xml:space="preserve" font-family="Helvetica" font-size="36.0" fill="#FEFFFF" transform="matrix(1.00, 0.00, -0.00, -1.00, 482.6, 352.0)">n</text><text xml:space="preserve" font-family="Helvetica" font-size="36.0" fill="#FEFFFF" transform="matrix(1.00, 0.00, -0.00, -1.00, 502.6, 352.0)">c</text><text xml:space="preserve" font-family="Helvetica" font-size="36.0" fill="#FEFFFF" transform="matrix(1.00, 0.00, -0.00, -1.00, 520.6, 352.0)">o</text><text xml:space="preserve" font-family="Helvetica" font-size="36.0" fill="#FEFFFF" transform="matrix(1.00, 0.00, -0.00, -1.00, 540.7, 352.0)">l</text><text xml:space="preserve" font-family="Helvetica" font-size="36.0" fill="#FEFFFF" transform="matrix(1.00, 0.00, -0.00, -1.00, 548.7, 352.0)">e</text><text xml:space="preserve" font-family="Helvetica" font-size="36.0" fill="#FEFFFF" transform="matrix(1.00, 0.00, -0.00, -1.00, 568.7, 352.0)">m</text><text xml:space="preserve" font-family="Helvetica" font-size="36.0" fill="#FEFFFF" transform="matrix(1.00, 0.00, -0.00, -1.00, 598.7, 352.0)">a</text><text xml:space="preserve" font-family="Helvetica" font-size="36.0" fill="#FEFFFF" transform="matrix(1.00, 0.00, -0.00, -1.00, 618.7, 352.0)">n</text><text xml:space="preserve" font-family="Helvetica" font-size="36.0" fill="#FEFFFF" transform="matrix(1.00, 0.00, -0.00, -1.00, 284.0, 249.0)">h</text><text xml:space="preserve" font-family="Helvetica" font-size="36.0" fill="#FEFFFF" transform="matrix(1.00, 0.00, -0.00, -1.00, 304.0, 249.0)">t</text><text xml:space="preserve" font-family="Helvetica" font-size="36.0" fill="#FEFFFF" transform="matrix(1.00, 0.00, -0.00, -1.00, 314.0, 249.0)">t</text><text xml:space="preserve" font-family="Helvetica" font-size="36.0" fill="#FEFFFF" transform="matrix(1.00, 0.00, -0.00, -1.00, 324.0, 249.0)">p</text><text xml:space="preserve" font-family="Helvetica" font-size="36.0" fill="#FEFFFF" transform="matrix(1.00, 0.00, -0.00, -1.00, 344.0, 249.0)">s</text><text xml:space="preserve" font-family="Helvetica" font-size="36.0" fill="#FEFFFF" transform="matrix(1.00, 0.00, -0.00, -1.00, 362.0, 249.0)">:</text><text xml:space="preserve" font-family="Helvetica" font-size="36.0" fill="#FEFFFF" transform="matrix(1.00, 0.00, -0.00, -1.00, 372.0, 249.0)">/</text><text xml:space="preserve" font-family="Helvetica" font-size="36.0" fill="#FEFFFF" transform="matrix(1.00, 0.00, -0.00, -1.00, 382.0, 249.0)">/</text><text xml:space="preserve" font-family="Helvetica" font-size="36.0" fill="#FEFFFF" transform="matrix(1.00, 0.00, -0.00, -1.00, 392.0, 249.0)">d</text><text xml:space="preserve" font-family="Helvetica" font-size="36.0" fill="#FEFFFF" transform="matrix(1.00, 0.00, -0.00, -1.00, 412.1, 249.0)">o</text><text xml:space="preserve" font-family="Helvetica" font-size="36.0" fill="#FEFFFF" transform="matrix(1.00, 0.00, -0.00, -1.00, 432.1, 249.0)">n</text><text xml:space="preserve" font-family="Helvetica" font-size="36.0" fill="#FEFFFF" transform="matrix(1.00, 0.00, -0.00, -1.00, 452.1, 249.0)">.</text><text xml:space="preserve" font-family="Helvetica" font-size="36.0" fill="#FEFFFF" transform="matrix(1.00, 0.00, -0.00, -1.00, 462.1, 249.0)">g</text><text xml:space="preserve" font-family="Helvetica" font-size="36.0" fill="#FEFFFF" transform="matrix(1.00, 0.00, -0.00, -1.00, 482.1, 249.0)">i</text><text xml:space="preserve" font-family="Helvetica" font-size="36.0" fill="#FEFFFF" transform="matrix(1.00, 0.00, -0.00, -1.00, 490.1, 249.0)">t</text><text xml:space="preserve" font-family="Helvetica" font-size="36.0" fill="#FEFFFF" transform="matrix(1.00, 0.00, -0.00, -1.00, 500.1, 249.0)">h</text><text xml:space="preserve" font-family="Helvetica" font-size="36.0" fill="#FEFFFF" transform="matrix(1.00, 0.00, -0.00, -1.00, 520.2, 249.0)">u</text><text xml:space="preserve" font-family="Helvetica" font-size="36.0" fill="#FEFFFF" transform="matrix(1.00, 0.00, -0.00, -1.00, 540.2, 249.0)">b</text><text xml:space="preserve" font-family="Helvetica" font-size="36.0" fill="#FEFFFF" transform="matrix(1.00, 0.00, -0.00, -1.00, 560.2, 249.0)">.</text><text xml:space="preserve" font-family="Helvetica" font-size="36.0" fill="#FEFFFF" transform="matrix(1.00, 0.00, -0.00, -1.00, 570.2, 249.0)">c</text><text xml:space="preserve" font-family="Helvetica" font-size="36.0" fill="#FEFFFF" transform="matrix(1.00, 0.00, -0.00, -1.00, 588.2, 249.0)">o</text><text xml:space="preserve" font-family="Helvetica" font-size="36.0" fill="#FEFFFF" transform="matrix(1.00, 0.00, -0.00, -1.00, 608.3, 249.0)">m</text><text xml:space="preserve" font-family="Helvetica" font-size="36.0" fill="#FEFFFF" transform="matrix(1.00, 0.00, -0.00, -1.00, 638.2, 249.0)">/</text><text xml:space="preserve" font-family="Helvetica" font-size="36.0" fill="#FEFFFF" transform="matrix(1.00, 0.00, -0.00, -1.00, 648.2, 249.0)">s</text><text xml:space="preserve" font-family="Helvetica" font-size="36.0" fill="#FEFFFF" transform="matrix(1.00, 0.00, -0.00, -1.00, 666.2, 249.0)">l</text><text xml:space="preserve" font-family="Helvetica" font-size="36.0" fill="#FEFFFF" transform="matrix(1.00, 0.00, -0.00, -1.00, 674.2, 249.0)">i</text><text xml:space="preserve" font-family="Helvetica" font-size="36.0" fill="#FEFFFF" transform="matrix(1.00, 0.00, -0.00, -1.00, 682.2, 249.0)">d</text><text xml:space="preserve" font-family="Helvetica" font-size="36.0" fill="#FEFFFF" transform="matrix(1.00, 0.00, -0.00, -1.00, 702.3, 249.0)">e</text><text xml:space="preserve" font-family="Helvetica" font-size="36.0" fill="#FEFFFF" transform="matrix(1.00, 0.00, -0.00, -1.00, 722.3, 249.0)">s</text><g><clipPath id="clip-115"><path d="M 282.9 244.8 L 740.1 244.8 L 740.1 248.5 L 282.9 248.5 Z M 282.9 244.8 "></path></clipPath><g clip-path="url(#clip-115)"><path d="M 9.5 41.4 L 465.8 41.4 " fill="none" stroke="#FEFFFF" stroke-width="1.78" stroke-miterlimit="0.00" transform="matrix(1.00, 0.00, 0.00, -1.00, 274.4, 288.1)"></path></g></g><text xml:space="preserve" font-family="Helvetica" font-size="36.0" fill="#FEFFFF" transform="matrix(1.00, 0.00, -0.00, -1.00, 111.0, 201.0)">h</text><text xml:space="preserve" font-family="Helvetica" font-size="36.0" fill="#FEFFFF" transform="matrix(1.00, 0.00, -0.00, -1.00, 131.0, 201.0)">t</text><text xml:space="preserve" font-family="Helvetica" font-size="36.0" fill="#FEFFFF" transform="matrix(1.00, 0.00, -0.00, -1.00, 141.0, 201.0)">t</text><text xml:space="preserve" font-family="Helvetica" font-size="36.0" fill="#FEFFFF" transform="matrix(1.00, 0.00, -0.00, -1.00, 151.0, 201.0)">p</text><text xml:space="preserve" font-family="Helvetica" font-size="36.0" fill="#FEFFFF" transform="matrix(1.00, 0.00, -0.00, -1.00, 171.0, 201.0)">s</text><text xml:space="preserve" font-family="Helvetica" font-size="36.0" fill="#FEFFFF" transform="matrix(1.00, 0.00, -0.00, -1.00, 189.0, 201.0)">:</text><text xml:space="preserve" font-family="Helvetica" font-size="36.0" fill="#FEFFFF" transform="matrix(1.00, 0.00, -0.00, -1.00, 199.0, 201.0)">/</text><text xml:space="preserve" font-family="Helvetica" font-size="36.0" fill="#FEFFFF" transform="matrix(1.00, 0.00, -0.00, -1.00, 209.0, 201.0)">/</text><text xml:space="preserve" font-family="Helvetica" font-size="36.0" fill="#FEFFFF" transform="matrix(1.00, 0.00, -0.00, -1.00, 219.0, 201.0)">g</text><text xml:space="preserve" font-family="Helvetica" font-size="36.0" fill="#FEFFFF" transform="matrix(1.00, 0.00, -0.00, -1.00, 239.1, 201.0)">i</text><text xml:space="preserve" font-family="Helvetica" font-size="36.0" fill="#FEFFFF" transform="matrix(1.00, 0.00, -0.00, -1.00, 247.1, 201.0)">t</text><text xml:space="preserve" font-family="Helvetica" font-size="36.0" fill="#FEFFFF" transform="matrix(1.00, 0.00, -0.00, -1.00, 257.1, 201.0)">h</text><text xml:space="preserve" font-family="Helvetica" font-size="36.0" fill="#FEFFFF" transform="matrix(1.00, 0.00, -0.00, -1.00, 277.1, 201.0)">u</text><text xml:space="preserve" font-family="Helvetica" font-size="36.0" fill="#FEFFFF" transform="matrix(1.00, 0.00, -0.00, -1.00, 297.1, 201.0)">b</text><text xml:space="preserve" font-family="Helvetica" font-size="36.0" fill="#FEFFFF" transform="matrix(1.00, 0.00, -0.00, -1.00, 317.1, 201.0)">.</text><text xml:space="preserve" font-family="Helvetica" font-size="36.0" fill="#FEFFFF" transform="matrix(1.00, 0.00, -0.00, -1.00, 327.1, 201.0)">c</text><text xml:space="preserve" font-family="Helvetica" font-size="36.0" fill="#FEFFFF" transform="matrix(1.00, 0.00, -0.00, -1.00, 345.1, 201.0)">o</text><text xml:space="preserve" font-family="Helvetica" font-size="36.0" fill="#FEFFFF" transform="matrix(1.00, 0.00, -0.00, -1.00, 365.2, 201.0)">m</text><text xml:space="preserve" font-family="Helvetica" font-size="36.0" fill="#FEFFFF" transform="matrix(1.00, 0.00, -0.00, -1.00, 395.2, 201.0)">/</text><text xml:space="preserve" font-family="Helvetica" font-size="36.0" fill="#FEFFFF" transform="matrix(1.00, 0.00, -0.00, -1.00, 405.2, 201.0)">d</text><text xml:space="preserve" font-family="Helvetica" font-size="36.0" fill="#FEFFFF" transform="matrix(1.00, 0.00, -0.00, -1.00, 425.2, 201.0)">o</text><text xml:space="preserve" font-family="Helvetica" font-size="36.0" fill="#FEFFFF" transform="matrix(1.00, 0.00, -0.00, -1.00, 445.2, 201.0)">n</text><text xml:space="preserve" font-family="Helvetica" font-size="36.0" fill="#FEFFFF" transform="matrix(1.00, 0.00, -0.00, -1.00, 465.2, 201.0)">/</text><text xml:space="preserve" font-family="Helvetica" font-size="36.0" fill="#FEFFFF" transform="matrix(1.00, 0.00, -0.00, -1.00, 475.2, 201.0)">m</text><text xml:space="preserve" font-family="Helvetica" font-size="36.0" fill="#FEFFFF" transform="matrix(1.00, 0.00, -0.00, -1.00, 505.2, 201.0)">f</text><text xml:space="preserve" font-family="Helvetica" font-size="36.0" fill="#FEFFFF" transform="matrix(1.00, 0.00, -0.00, -1.00, 515.2, 201.0)">n</text><text xml:space="preserve" font-family="Helvetica" font-size="36.0" fill="#FEFFFF" transform="matrix(1.00, 0.00, -0.00, -1.00, 535.2, 201.0)">y</text><text xml:space="preserve" font-family="Helvetica" font-size="36.0" fill="#FEFFFF" transform="matrix(1.00, 0.00, -0.00, -1.00, 553.2, 201.0)">2</text><text xml:space="preserve" font-family="Helvetica" font-size="36.0" fill="#FEFFFF" transform="matrix(1.00, 0.00, -0.00, -1.00, 573.3, 201.0)">0</text><text xml:space="preserve" font-family="Helvetica" font-size="36.0" fill="#FEFFFF" transform="matrix(1.00, 0.00, -0.00, -1.00, 593.3, 201.0)">1</text><text xml:space="preserve" font-family="Helvetica" font-size="36.0" fill="#FEFFFF" transform="matrix(1.00, 0.00, -0.00, -1.00, 613.3, 201.0)">6</text><text xml:space="preserve" font-family="Helvetica" font-size="36.0" fill="#FEFFFF" transform="matrix(1.00, 0.00, -0.00, -1.00, 633.4, 201.0)">-</text><text xml:space="preserve" font-family="Helvetica" font-size="36.0" fill="#FEFFFF" transform="matrix(1.00, 0.00, -0.00, -1.00, 645.3, 201.0)">w</text><text xml:space="preserve" font-family="Helvetica" font-size="36.0" fill="#FEFFFF" transform="matrix(1.00, 0.00, -0.00, -1.00, 671.4, 201.0)">i</text><text xml:space="preserve" font-family="Helvetica" font-size="36.0" fill="#FEFFFF" transform="matrix(1.00, 0.00, -0.00, -1.00, 679.4, 201.0)">r</text><text xml:space="preserve" font-family="Helvetica" font-size="36.0" fill="#FEFFFF" transform="matrix(1.00, 0.00, -0.00, -1.00, 691.3, 201.0)">e</text><text xml:space="preserve" font-family="Helvetica" font-size="36.0" fill="#FEFFFF" transform="matrix(1.00, 0.00, -0.00, -1.00, 711.4, 201.0)">l</text><text xml:space="preserve" font-family="Helvetica" font-size="36.0" fill="#FEFFFF" transform="matrix(1.00, 0.00, -0.00, -1.00, 719.4, 201.0)">e</text><text xml:space="preserve" font-family="Helvetica" font-size="36.0" fill="#FEFFFF" transform="matrix(1.00, 0.00, -0.00, -1.00, 739.4, 201.0)">s</text><text xml:space="preserve" font-family="Helvetica" font-size="36.0" fill="#FEFFFF" transform="matrix(1.00, 0.00, -0.00, -1.00, 757.4, 201.0)">s</text><text xml:space="preserve" font-family="Helvetica" font-size="36.0" fill="#FEFFFF" transform="matrix(1.00, 0.00, -0.00, -1.00, 775.4, 201.0)">-</text><text xml:space="preserve" font-family="Helvetica" font-size="36.0" fill="#FEFFFF" transform="matrix(1.00, 0.00, -0.00, -1.00, 787.4, 201.0)">s</text><text xml:space="preserve" font-family="Helvetica" font-size="36.0" fill="#FEFFFF" transform="matrix(1.00, 0.00, -0.00, -1.00, 805.4, 201.0)">e</text><text xml:space="preserve" font-family="Helvetica" font-size="36.0" fill="#FEFFFF" transform="matrix(1.00, 0.00, -0.00, -1.00, 825.4, 201.0)">n</text><text xml:space="preserve" font-family="Helvetica" font-size="36.0" fill="#FEFFFF" transform="matrix(1.00, 0.00, -0.00, -1.00, 845.5, 201.0)">s</text><text xml:space="preserve" font-family="Helvetica" font-size="36.0" fill="#FEFFFF" transform="matrix(1.00, 0.00, -0.00, -1.00, 863.5, 201.0)">o</text><text xml:space="preserve" font-family="Helvetica" font-size="36.0" fill="#FEFFFF" transform="matrix(1.00, 0.00, -0.00, -1.00, 883.5, 201.0)">r</text><text xml:space="preserve" font-family="Helvetica" font-size="36.0" fill="#FEFFFF" transform="matrix(1.00, 0.00, -0.00, -1.00, 895.5, 201.0)">s</text><g><clipPath id="clip-116"><path d="M 109.8 196.2 L 913.2 196.2 L 913.2 199.9 L 109.8 199.9 Z M 109.8 196.2 "></path></clipPath><g clip-path="url(#clip-116)"><path d="M 4.5 41.4 L 806.9 41.4 " fill="none" stroke="#FEFFFF" stroke-width="1.78" stroke-miterlimit="0.00" transform="matrix(1.00, 0.00, 0.00, -1.00, 106.3, 239.5)"></path></g></g></g></svg>